  0
SECTION
  2
HEADER
  9
$ACADVER
  1
AC1027
  9
$DWGCODEPAGE
  3
UTF-8
  9
$INSUNITS
 70
4
  0
ENDSEC
  0
SECTION
  2
ENTITIES
  0
LINE
  5
2D7
330
1F
100
AcDbEntity
  8
0
100
AcDbLine
 10
958.9154285284731
 20
5534.275171021821
 30
0.0
 11
11897.762388241
 21
5534.275171021821
 31
0.0
  0
LINE
  5
2D8
330
1F
100
AcDbEntity
  8
0
100
AcDbLine
 10
1858.915428528475
 20
4634.275171021822
 30
0.0
 11
10997.762388241
 21
4634.275171021822
 31
0.0
  0
LINE
  5
2D9
330
1F
100
AcDbEntity
  8
0
100
AcDbLine
 10
1858.915428528475
 20
2206.27497356996
 30
0.0
 11
10997.762388241
 21
2206.27497356996
 31
0.0
  0
LINE
  5
2DA
330
1F
100
AcDbEntity
  8
0
100
AcDbLine
 10
958.9154285284731
 20
1306.27497356996
 30
0.0
 11
11897.762388241
 21
1306.27497356996
 31
0.0
  0
LINE
  5
2DB
330
1F
100
AcDbEntity
  8
0
100
AcDbLine
 10
11447.762388241
 20
4184.275171021822
 30
0.0
 11
11447.762388241
 21
2656.27497356996
 31
0.0
  0
ARC
  5
2DC
330
1F
100
AcDbEntity
  8
0
100
AcDbCircle
 10
10997.762388241
 20
2656.27497356996
 30
0.0
 40
450.0
100
AcDbArc
 50
270.0
 51
0.0
  0
ARC
  5
2DE
330
1F
100
AcDbEntity
  8
0
100
AcDbCircle
 10
10997.762388241
 20
4184.275171021822
 30
0.0
 40
450.0
100
AcDbArc
 50
0.0
 51
90.0
  0
LINE
  5
2DF
330
1F
100
AcDbEntity
  8
0
100
AcDbLine
 10
12347.762388241
 20
5084.275171021822
 30
0.0
 11
12347.762388241
 21
1756.27497356996
 31
0.0
  0
ARC
  5
2E0
330
1F
100
AcDbEntity
  8
0
100
AcDbCircle
 10
11897.762388241
 20
5084.275171021822
 30
0.0
 40
450.0
100
AcDbArc
 50
0.0
 51
90.0
  0
ARC
  5
2E1
330
1F
100
AcDbEntity
  8
0
100
AcDbCircle
 10
11897.762388241
 20
1756.27497356996
 30
0.0
 40
450.0
100
AcDbArc
 50
270.0
 51
0.0
  0
ARC
  5
2E2
330
1F
100
AcDbEntity
  8
0
100
AcDbCircle
 10
1858.915428528475
 20
4184.275171021822
 30
0.0
 40
450.0
100
AcDbArc
 50
90.0
 51
180.0
  0
ARC
  5
2E3
330
1F
100
AcDbEntity
  8
0
100
AcDbCircle
 10
1858.915428528471
 20
2656.27497356996
 30
0.0
 40
450.0
100
AcDbArc
 50
180.0
 51
270.0
  0
ARC
  5
2E4
330
1F
100
AcDbEntity
  8
0
100
AcDbCircle
 10
958.9154285284731
 20
1756.27497356996
 30
0.0
 40
450.0
100
AcDbArc
 50
180.0
 51
270.0
  0
LINE
  5
2E5
330
1F
100
AcDbEntity
  8
0
100
AcDbLine
 10
1408.915428528473
 20
4184.275171021822
 30
0.0
 11
1408.915428528473
 21
2656.27497356996
 31
0.0
  0
LINE
  5
2E6
330
1F
100
AcDbEntity
  8
0
100
AcDbLine
 10
508.9154285284729
 20
5084.275171021822
 30
0.0
 11
508.9154285284729
 21
1756.27497356996
 31
0.0
  0
ARC
  5
2E7
330
1F
100
AcDbEntity
  8
0
100
AcDbCircle
 10
958.9154285284731
 20
5084.275171021822
 30
0.0
 40
450.0
100
AcDbArc
 50
90.0
 51
180.0
  0
LINE
  5
2E8
330
1F
100
AcDbEntity
  8
0
100
AcDbLine
 10
8982.315413305927
 20
1439.04693967669
 30
0.0
 11
9612.920819987909
 21
2073.503007463228
 31
0.0
  0
ARC
  5
2E9
330
1F
100
AcDbEntity
  8
0
100
AcDbCircle
 10
9932.085941065086
 20
1756.27497356996
 30
0.0
 40
450.0
100
AcDbArc
 50
90.0
 51
135.1743993890504
  0
ARC
  5
2EA
330
1F
100
AcDbEntity
  8
0
100
AcDbCircle
 10
8663.150292228747
 20
1756.27497356996
 30
0.0
 40
450.0
100
AcDbArc
 50
270.0
 51
315.1743993890505
  0
ARC
  5
2EB
330
1F
100
AcDbEntity
  8
0
100
AcDbCircle
 10
3518.210453485328
 20
1756.274973569961
 30
0.0
 40
450.0
100
AcDbArc
 50
44.82560061095493
 51
90.0
  0
ARC
  5
2EC
330
1F
100
AcDbEntity
  8
0
100
AcDbCircle
 10
4787.146102321665
 20
1756.274973569961
 30
0.0
 40
450.0
100
AcDbArc
 50
224.8256006109549
 51
270.0
  0
LINE
  5
2ED
330
1F
100
AcDbEntity
  8
0
100
AcDbLine
 10
4467.980981244486
 20
1439.046939676691
 30
0.0
 11
3837.375574562506
 21
2073.503007463229
 31
0.0
  0
ARC
  5
2EE
330
1F
100
AcDbEntity
  8
0
100
AcDbCircle
 10
9752.560160321914
 20
5084.275171021822
 30
0.0
 40
450.0
100
AcDbArc
 50
90.0
 51
135.174399389045
  0
ARC
  5
2EF
330
1F
100
AcDbEntity
  8
0
100
AcDbCircle
 10
8483.624511485578
 20
5084.275171021822
 30
0.0
 40
450.0
100
AcDbArc
 50
270.0
 51
315.1743993890452
  0
LINE
  5
2F0
330
1F
100
AcDbEntity
  8
0
100
AcDbLine
 10
8802.789632562756
 20
4767.047137128552
 30
0.0
 11
9433.395039244736
 21
5401.503204915091
 31
0.0
  0
ARC
  5
2F1
330
1F
100
AcDbEntity
  8
0
100
AcDbCircle
 10
3380.92831067069
 20
5084.275171021822
 30
0.0
 40
450.0
100
AcDbArc
 50
44.82560061095857
 51
90.0
  0
ARC
  5
2F2
330
1F
100
AcDbEntity
  8
0
100
AcDbCircle
 10
4649.863959507027
 20
5084.275171021822
 30
0.0
 40
450.0
100
AcDbArc
 50
224.8256006109586
 51
270.0
  0
LINE
  5
2F3
330
1F
100
AcDbEntity
  8
0
100
AcDbLine
 10
4330.698838429849
 20
4767.047137128551
 30
0.0
 11
3700.093431747868
 21
5401.50320491509
 31
0.0
  0
ARC
  5
2F4
330
1F
100
AcDbEntity
  8
0
100
AcDbCircle
 10
7280.365575583093
 20
4184.275171021822
 30
0.0
 40
450.0
100
AcDbArc
 50
90.0
 51
180.0
  0
ARC
  5
2F5
330
1F
100
AcDbEntity
  8
0
100
AcDbCircle
 10
7280.36557558309
 20
2656.27497356996
 30
0.0
 40
450.0
100
AcDbArc
 50
180.0
 51
270.0
  0
LINE
  5
2F6
330
1F
100
AcDbEntity
  8
0
100
AcDbLine
 10
6830.36557558309
 20
4184.275171021822
 30
0.0
 11
6830.36557558309
 21
2656.27497356996
 31
0.0
  0
ARC
  5
2F7
330
1F
100
AcDbEntity
  8
0
100
AcDbCircle
 10
5912.325965958618
 20
4184.275171021822
 30
0.0
 40
450.0
100
AcDbArc
 50
0.0
 51
90.0
  0
ARC
  5
2F8
330
1F
100
AcDbEntity
  8
0
100
AcDbCircle
 10
5912.325965958622
 20
2656.27497356996
 30
0.0
 40
450.0
100
AcDbArc
 50
270.0
 51
0.0
  0
LINE
  5
2F9
330
1F
100
AcDbEntity
  8
0
100
AcDbLine
 10
6362.325965958621
 20
4184.275171021822
 30
0.0
 11
6362.325965958621
 21
2656.27497356996
 31
0.0
  0
TEXT
  5
2FC
330
1F
100
AcDbEntity
  8
도면층1
100
AcDbText
 10
7380.24368072136
 20
4634.275171021822
 30
0.0
 40
150.0
  1
station-5
100
AcDbText
  0
TEXT
  5
304
330
1F
100
AcDbEntity
  8
도면층1
100
AcDbText
 10
10404.94337694698
 20
5536.730832686215
 30
0.0
 40
150.0
  1
station-3
100
AcDbText
  0
TEXT
  5
30C
330
1F
100
AcDbEntity
  8
도면층1
100
AcDbText
 10
6268.625532463431
 20
5536.730832686215
 30
0.0
 40
150.0
  1
station-2
100
AcDbText
  0
TEXT
  5
314
330
1F
100
AcDbEntity
  8
도면층1
100
AcDbText
 10
10191.73111692206
 20
1308.730635234353
 30
0.0
 40
150.0
  1
station-10
100
AcDbText
  0
TEXT
  5
31C
330
1F
100
AcDbEntity
  8
도면층1
100
AcDbText
 10
6268.625532463433
 20
2208.730635234353
 30
0.0
 40
150.0
  1
station-7
100
AcDbText
  0
TEXT
  5
324
330
1F
100
AcDbEntity
  8
도면층1
100
AcDbText
 10
2146.521877301188
 20
2208.730635234354
 30
0.0
 40
150.0
  1
station-6
100
AcDbText
  0
TEXT
  5
32C
330
1F
100
AcDbEntity
  8
도면층1
100
AcDbText
 10
1791.168071939996
 20
5536.730832686215
 30
0.0
 40
150.0
  1
station-1
100
AcDbText
  0
TEXT
  5
334
330
1F
100
AcDbEntity
  8
도면층1
100
AcDbText
 10
3027.799180084563
 20
4636.730832686215
 30
0.0
 40
150.0
  1
station-4
100
AcDbText
  0
TEXT
  5
33C
330
1F
100
AcDbEntity
  8
도면층1
100
AcDbText
 10
2516.089756024746
 20
1308.730635234353
 30
0.0
 40
150.0
  1
station-8
100
AcDbText
  0
TEXT
  5
344
330
1F
100
AcDbEntity
  8
도면층1
100
AcDbText
 10
6268.625532463431
 20
1308.730635234353
 30
0.0
 40
150.0
  1
station-9
100
AcDbText
  0
ENDSEC
  0
EOF
